<?xml version="1.0" encoding="UTF-8" standalone="no"?>
<svg width="327" height="324" viewBox="0 0 327 324" fill="none" xmlns="http://www.w3.org/2000/svg">
<g filter="url(#filter0_d)">
<path d="M196.031 149H34.9654C6.6601 144.775 0.111806 120.358 0.111806 101.843C-1.57806 71.4253 16.3064 59.5962 25.4599 57.4839C20.3903 22.4191 50.1038 5.90765 65.5943 2.03503C114.601 -8.10419 131.781 22.1022 134.245 38.4729C143.962 25.3764 162.938 27.7351 171.211 30.5516C185.575 35.6212 191.278 50.6188 192.335 57.4839C219.373 59.5962 225.78 81.9518 225.604 92.8656C225.604 112.141 220.5 138.358 196.031 149Z" transform="translate(50.6963 46.3659)" fill="#004BA8"/>
<path d="M196.031 149H34.9654C6.6601 144.775 0.111806 120.358 0.111806 101.843C-1.57806 71.4253 16.3064 59.5962 25.4599 57.4839C20.3903 22.4191 50.1038 5.90765 65.5943 2.03503C114.601 -8.10419 131.781 22.1022 134.245 38.4729C143.962 25.3764 162.938 27.7351 171.211 30.5516C185.575 35.6212 191.278 50.6188 192.335 57.4839C219.373 59.5962 225.78 81.9518 225.604 92.8656C225.604 112.141 220.5 138.358 196.031 149Z" transform="translate(50.6963 46.3659)" fill="url(#paint0_linear)"/>
</g>
<path d="M0 10C0 4.47715 4.47715 0 10 0H32.8954C38.4182 0 42.8954 4.47715 42.8954 10V28.3882C42.8954 31.223 41.6922 33.9247 39.585 35.8211L36.1521 38.9107C34.045 40.8071 32.8418 43.5088 32.8418 46.3436V50.6568C32.8418 56.1796 28.3646 60.6568 22.8418 60.6568H10C4.47715 60.6568 0 56.1796 0 50.6568V10Z" transform="translate(188.969 108.015)" fill="#CC338E"/>
<g filter="url(#filter1_d)">
<path d="M0 10C0 4.47715 4.47715 0 10 0H32.8954C38.4182 0 42.8954 4.47715 42.8954 10V28.3882C42.8954 31.223 41.6922 33.9247 39.585 35.8211L36.1521 38.9107C34.045 40.8071 32.8418 43.5088 32.8418 46.3436V50.6568C32.8418 56.1796 28.3646 60.6568 22.8418 60.6568H10C4.47715 60.6568 0 56.1796 0 50.6568V10Z" transform="translate(188.969 79.8646)" fill="#FF7300"/>
</g>
<path d="M0 10C0 4.47715 4.47715 0 10 0H32.8954C38.4182 0 42.8954 4.47715 42.8954 10V28.3882C42.8954 31.223 41.6922 33.9247 39.585 35.8211L36.1521 38.9107C34.045 40.8071 32.8418 43.5088 32.8418 46.3436V50.6568C32.8418 56.1796 28.3646 60.6568 22.8418 60.6568H10C4.47715 60.6568 0 56.1796 0 50.6568V10Z" transform="translate(188.969 50.7091)" fill="#DF4430"/>
<g filter="url(#filter2_d)">
<path d="M0 10C0 4.47715 4.47715 0 10 0H32.8954C38.4182 0 42.8954 4.47715 42.8954 10V28.3882C42.8954 31.223 41.6922 33.9247 39.585 35.8211L36.1521 38.9107C34.045 40.8071 32.8418 43.5088 32.8418 46.3436V50.6568C32.8418 56.1796 28.3646 60.6568 22.8418 60.6568H10C4.47715 60.6568 0 56.1796 0 50.6568V10Z" transform="translate(188.969 22.559)" fill="#029D54"/>
</g>
<g filter="url(#filter3_d)">
<path d="M0 10C0 4.47715 4.47715 0 10 0H126.729C132.252 0 136.729 4.47715 136.729 10V28.3882C136.729 31.223 135.526 33.9247 133.419 35.8211L129.986 38.9107C127.879 40.8071 126.675 43.5088 126.675 46.3436V157.895C126.675 163.418 122.198 167.895 116.675 167.895H10C4.47715 167.895 0 163.418 0 157.895V10Z" transform="translate(95.1355 0.776184)" fill="#F6B502"/>
</g>
<g filter="url(#filter4_d)">
<path d="M196.031 133H34.9654C8.5 133 -0.0642066 110.468 0.111806 101.843C-1.57806 71.4253 16.3064 59.5962 25.4599 57.4839C20.3903 22.4191 50.1038 5.90765 65.5943 2.03503C114.601 -8.10419 131.781 22.1022 134.245 38.4729C143.962 25.3764 162.938 27.7351 171.211 30.5516C185.575 35.6212 191.278 50.6188 192.335 57.4839C219.373 59.5962 225.78 81.9518 225.604 92.8656C225.604 112.141 212 133 196.031 133Z" transform="translate(50.6963 63.2238)" fill="#004BA8"/>
<path d="M196.031 133H34.9654C8.5 133 -0.0642066 110.468 0.111806 101.843C-1.57806 71.4253 16.3064 59.5962 25.4599 57.4839C20.3903 22.4191 50.1038 5.90765 65.5943 2.03503C114.601 -8.10419 131.781 22.1022 134.245 38.4729C143.962 25.3764 162.938 27.7351 171.211 30.5516C185.575 35.6212 191.278 50.6188 192.335 57.4839C219.373 59.5962 225.78 81.9518 225.604 92.8656C225.604 112.141 212 133 196.031 133Z" transform="translate(50.6963 63.2238)" fill="url(#paint1_linear)"/>
</g>
<path d="M3.7 57V23H25.4V29H10.6V39H22.7V45H10.6V57H3.7ZM30.2625 57V23H37.1625V57H30.2625ZM63.9191 57H44.5691V23H51.4691V50.9H63.9191V57ZM68.1531 57V23H90.1531V29H75.0531V36.95H87.1531V42.85H75.0531V51H90.1531V57H68.1531ZM107.475 57V22.25H113.275L124.025 52.65L134.725 22.25H140.525V57H137.425V25.45H136.725L125.825 55.85H122.175L111.275 25.45H110.575V57H107.475ZM146.123 57L156.123 22.25H163.373L173.323 57H170.273L167.473 47.4H151.973L149.223 57H146.123ZM158.373 24.95L152.723 44.65H166.723L161.073 24.95H158.373ZM178.911 57V22.25H185.011L199.561 54.25H200.711V22.25H203.761V57H197.761L183.111 25.05H182.011V57H178.911ZM209.404 57L219.404 22.25H226.654L236.604 57H233.554L230.754 47.4H215.254L212.504 57H209.404ZM221.654 24.95L216.004 44.65H230.004L224.354 24.95H221.654ZM255.207 42.2V39.45H264.657V56.25C263.69 56.45 261.99 56.7 259.557 57C257.124 57.3333 255.107 57.5 253.507 57.5C248.507 57.5 245.04 56.0333 243.107 53.1C241.174 50.1667 240.207 45.7167 240.207 39.75C240.207 36.7833 240.407 34.25 240.807 32.15C241.207 30.05 241.907 28.1833 242.907 26.55C244.807 23.35 248.324 21.75 253.457 21.75C256.59 21.75 259.774 22.0667 263.007 22.7L264.657 23.05L264.507 25.7C260.34 24.9333 256.74 24.55 253.707 24.55C249.674 24.55 246.94 25.7667 245.507 28.2C244.107 30.6 243.407 34.4333 243.407 39.7C243.407 44.9667 244.107 48.7833 245.507 51.15C246.94 53.5167 249.657 54.7 253.657 54.7C256.024 54.7 258.674 54.4333 261.607 53.9V42.2H255.207ZM272.416 57V22.25H293.266V25.05H275.516V37.95H290.266V40.7H275.516V54.25H293.266V57H272.416ZM303.104 43.3V57H300.004V22.25H312.754C316.388 22.25 319.088 23.0833 320.854 24.75C322.654 26.3833 323.554 28.9833 323.554 32.55C323.554 38.1167 321.321 41.5 316.854 42.7L324.004 57H320.554L313.704 43.3H303.104ZM320.354 32.6C320.354 30 319.738 28.0833 318.504 26.85C317.271 25.6167 315.354 25 312.754 25H303.104V40.55H312.754C317.821 40.55 320.354 37.9 320.354 32.6Z" transform="translate(0 208.605)" fill="#5C5C5C"/>
<defs>
<filter id="filter0_d" x="45.6963" y="36.3659" width="235.607" height="159" filterUnits="userSpaceOnUse" color-interpolation-filters="sRGB">
<feFlood flood-opacity="0" result="BackgroundImageFix"/>
<feColorMatrix in="SourceAlpha" type="matrix" values="0 0 0 0 0 0 0 0 0 0 0 0 0 0 0 0 0 0 255 0"/>
<feOffset dy="-5"/>
<feGaussianBlur stdDeviation="2.5"/>
<feColorMatrix type="matrix" values="0 0 0 0 0 0 0 0 0 0 0 0 0 0 0 0 0 0 0.1 0"/>
<feBlend mode="normal" in2="BackgroundImageFix" result="effect1_dropShadow"/>
<feBlend mode="normal" in="SourceGraphic" in2="effect1_dropShadow" result="shape"/>
</filter>
<filter id="filter1_d" x="184.969" y="79.8646" width="50.8954" height="68.6568" filterUnits="userSpaceOnUse" color-interpolation-filters="sRGB">
<feFlood flood-opacity="0" result="BackgroundImageFix"/>
<feColorMatrix in="SourceAlpha" type="matrix" values="0 0 0 0 0 0 0 0 0 0 0 0 0 0 0 0 0 0 255 0"/>
<feOffset dy="4"/>
<feGaussianBlur stdDeviation="2"/>
<feColorMatrix type="matrix" values="0 0 0 0 0 0 0 0 0 0 0 0 0 0 0 0 0 0 0.25 0"/>
<feBlend mode="normal" in2="BackgroundImageFix" result="effect1_dropShadow"/>
<feBlend mode="normal" in="SourceGraphic" in2="effect1_dropShadow" result="shape"/>
</filter>
<filter id="filter2_d" x="184.969" y="22.559" width="50.8954" height="68.6568" filterUnits="userSpaceOnUse" color-interpolation-filters="sRGB">
<feFlood flood-opacity="0" result="BackgroundImageFix"/>
<feColorMatrix in="SourceAlpha" type="matrix" values="0 0 0 0 0 0 0 0 0 0 0 0 0 0 0 0 0 0 255 0"/>
<feOffset dy="4"/>
<feGaussianBlur stdDeviation="2"/>
<feColorMatrix type="matrix" values="0 0 0 0 0 0 0 0 0 0 0 0 0 0 0 0 0 0 0.25 0"/>
<feBlend mode="normal" in2="BackgroundImageFix" result="effect1_dropShadow"/>
<feBlend mode="normal" in="SourceGraphic" in2="effect1_dropShadow" result="shape"/>
</filter>
<filter id="filter3_d" x="95.1355" y="0.776184" width="138.729" height="167.895" filterUnits="userSpaceOnUse" color-interpolation-filters="sRGB">
<feFlood flood-opacity="0" result="BackgroundImageFix"/>
<feColorMatrix in="SourceAlpha" type="matrix" values="0 0 0 0 0 0 0 0 0 0 0 0 0 0 0 0 0 0 255 0"/>
<feOffset dx="2"/>
<feColorMatrix type="matrix" values="0 0 0 0 0 0 0 0 0 0 0 0 0 0 0 0 0 0 0.25 0"/>
<feBlend mode="normal" in2="BackgroundImageFix" result="effect1_dropShadow"/>
<feBlend mode="normal" in="SourceGraphic" in2="effect1_dropShadow" result="shape"/>
</filter>
<filter id="filter4_d" x="45.6963" y="53.2238" width="235.607" height="143" filterUnits="userSpaceOnUse" color-interpolation-filters="sRGB">
<feFlood flood-opacity="0" result="BackgroundImageFix"/>
<feColorMatrix in="SourceAlpha" type="matrix" values="0 0 0 0 0 0 0 0 0 0 0 0 0 0 0 0 0 0 255 0"/>
<feOffset dy="-5"/>
<feGaussianBlur stdDeviation="2.5"/>
<feColorMatrix type="matrix" values="0 0 0 0 0 0 0 0 0 0 0 0 0 0 0 0 0 0 0.1 0"/>
<feBlend mode="normal" in2="BackgroundImageFix" result="effect1_dropShadow"/>
<feBlend mode="normal" in="SourceGraphic" in2="effect1_dropShadow" result="shape"/>
</filter>
<linearGradient id="paint0_linear" x2="1" gradientUnits="userSpaceOnUse" gradientTransform="translate(225.607) scale(225.607 133) rotate(90)">
<stop stop-color="#59D0EE"/>
<stop offset="1" stop-color="white" stop-opacity="0"/>
</linearGradient>
<linearGradient id="paint1_linear" x2="1" gradientUnits="userSpaceOnUse" gradientTransform="translate(225.607) scale(225.607 133) rotate(90)">
<stop stop-color="#59D0EE"/>
<stop offset="1" stop-color="white" stop-opacity="0"/>
</linearGradient>
</defs>
</svg>